<svg width="72" height="72" viewBox="0 0 72 72" fill="none" xmlns="http://www.w3.org/2000/svg">
<path d="M10.6649 11.9995C9.17019 11.9995 7.96721 13.1087 7.96721 14.4988V47.1378C7.96721 48.5278 9.17023 49.637 10.6649 49.637H61.9253C63.42 49.637 64.623 48.5278 64.623 47.1378V14.4988C64.623 13.1087 63.4199 11.9995 61.9253 11.9995H10.6649ZM40.1733 19.3718C40.6499 19.3127 41.1218 19.511 41.4126 19.8912C41.7033 20.2719 41.7692 20.7778 41.5857 21.2198L33.4921 41.3829C33.3947 41.7561 33.1411 42.0697 32.7958 42.2441C32.4504 42.4185 32.0468 42.4364 31.6869 42.2938C31.3274 42.1513 31.0465 41.8611 30.9162 41.4982C30.7854 41.1349 30.8179 40.7336 31.0047 40.3956L39.0983 20.2325C39.2714 19.7712 39.684 19.4406 40.1733 19.3717L40.1733 19.3718ZM26.8102 22.7323C27.4496 22.691 28.0302 23.1036 28.199 23.7201C28.3675 24.3361 28.0777 24.9854 27.5056 25.2732L17.4938 30.8185L27.5056 36.3632C28.1576 36.7228 28.3934 37.5409 28.0325 38.1902C27.6716 38.84 26.8507 39.0749 26.199 38.7153L14.0584 31.9943C13.6288 31.7575 13.3625 31.3074 13.3625 30.8185C13.3625 30.3295 13.6288 29.879 14.0584 29.6422L26.199 22.9212C26.3844 22.8101 26.5942 22.7454 26.8102 22.7322L26.8102 22.7323ZM45.5908 22.7323C45.5979 22.7318 45.605 22.7318 45.612 22.7323C45.8849 22.7149 46.1568 22.7806 46.3916 22.9212L58.5322 29.6422C58.9618 29.879 59.2281 30.3295 59.2281 30.8185C59.2281 31.3075 58.9618 31.7576 58.5322 31.9943L46.3916 38.7154C45.74 39.0749 44.919 38.8401 44.5581 38.1903C44.1973 37.5409 44.433 36.7228 45.085 36.3632L55.0968 30.8185L45.085 25.2733C44.5435 25.0018 44.2499 24.4036 44.368 23.811C44.4861 23.2184 44.9862 22.7772 45.5908 22.7322L45.5908 22.7323ZM30.8993 50.9822V56.3587H41.6912V50.9822H30.8993ZM26.7262 57.7032C26.3681 57.7196 26.0317 57.8772 25.7904 58.1411C25.5495 58.4051 25.4234 58.7539 25.4399 59.1102C25.4568 59.4669 25.6149 59.8021 25.8798 60.0422C26.1446 60.2827 26.4947 60.4083 26.8527 60.3915H45.7381C46.0994 60.3966 46.4476 60.2574 46.7045 60.0047C46.9618 59.752 47.1063 59.4069 47.1063 59.0473C47.1063 58.6873 46.9618 58.3427 46.7045 58.09C46.4476 57.8373 46.0994 57.6981 45.7381 57.7032H26.8527C26.8104 57.7009 26.768 57.7009 26.7261 57.7032L26.7262 57.7032Z" fill="white"/>
</svg>
